<svg width="48" height="51" viewBox="0 0 48 51" fill="none" xmlns="http://www.w3.org/2000/svg">
<g id="btn CLOSE">
<path id="Ellipse 1" d="M29.9918 3.75998C35.6516 5.21919 40.5843 8.69364 43.8644 13.5313C47.1445 18.369 48.5465 24.2375 47.8073 30.0354C47.068 35.8333 44.2384 41.1622 39.8494 45.0221C35.4603 48.882 29.8136 51.0076 23.9687 51C18.1239 50.9924 12.4827 48.8521 8.10369 44.9808C3.72473 41.1094 0.909005 35.7732 0.184893 29.9733C-0.53922 24.1735 0.878053 18.3087 4.17076 13.4796C7.46347 8.65046 12.4053 5.18889 18.0688 3.74443L18.542 5.59983C13.3303 6.92904 8.7828 10.1144 5.75279 14.5583C2.72279 19.0022 1.41859 24.399 2.08493 29.7361C2.75127 35.0732 5.34235 39.9837 9.37194 43.5462C13.4015 47.1087 18.5927 49.0782 23.9712 49.0852C29.3498 49.0922 34.546 47.1362 38.5849 43.5843C42.6237 40.0323 45.2276 35.1286 45.9079 29.7932C46.5881 24.4579 45.298 19.0576 42.2796 14.6059C39.2612 10.1542 34.722 6.95692 29.5137 5.61413L29.9918 3.75998Z" fill="white"/>
<line id="Line 1" x1="24" x2="24" y2="18" stroke="white" stroke-width="2"/>
</g>
</svg>
